<?xml version="1.0" standalone="no"?>
<svg version="1.1" id="Layer_1" xmlns="http://www.w3.org/2000/svg" xmlns:xlink="http://www.w3.org/1999/xlink" x="0px" y="0px" width="595.276px" height="595.276px" viewBox="0 0 595.276 595.276" enable-background="new 0 0 595.276 595.276" xml:space="preserve">
<path id="color_x5F_7" fill-rule="evenodd" clip-rule="evenodd" fill="#E96257" d="M257.357,322.404
	c0,0-7.983-16.765-7.983-23.95c0-4.407,3.578-7.984,7.983-7.984c4.407,0,7.984,3.578,7.984,7.984
	C265.341,305.64,257.357,322.404,257.357,322.404z M257.357,293.904c2.906,0,5.267,2.36,5.267,5.267c0,2.906-2.36,5.266-5.267,5.266
	c-2.906,0-5.266-2.359-5.266-5.266C252.091,296.264,254.451,293.904,257.357,293.904z M224.915,265.36
	c-0.502,2.665-3.237,4.703-6.531,4.703s-6.029-2.039-6.531-4.703H224.915z"></path>
<path id="color_x5F_6" fill-rule="evenodd" clip-rule="evenodd" fill="#630303" d="M530.443,346.092
	c-1.538,6.641-15.725,61.868-46.431,87.509c-39.714,33.163-101.206,36.693-137.809,28.218c-15.945-3.692-30.727-9.766-44.06-17.764
	c-43.971-26.41-95.704-36.846-146.475-29.548c-9.089,1.316-18.332,1.016-27.482-1.103c-34.409-7.966-58.681-39.605-65.807-79.644
	c-0.094-15.88-21.007-136.096,65.361-148.679c28.14-0.804,62.723-0.741,97.746,1.925c3.335,0.379,6.677,0.657,10.021,0.834
	c33.687,3.053,67.253,8.663,95.375,18.371c49.191,16.979,87.033,43.443,115.586,70.727c23.452,22.41,54.553,35.016,86.963,35.291
	C533.439,312.227,533.068,334.754,530.443,346.092z M471.329,374.924c0-48.568-26.983-108.788-130.489-155.895
	c-87.42-39.786-186.942-25.491-203.9-22.892c-5.72,0.876-11.336,2.409-15.428,6.697c-4.092,4.288-6.39,10.104-6.39,16.168v146.613
	c0,6.729,5.205,12.184,11.626,12.184h341.839C470.101,377.798,471.329,376.512,471.329,374.924L471.329,374.924z M244.577,325.158
	l0.278,15.313l-9.31,8.298c-15.758-2.887-75.163-13.452-89.287-11.396c-10.628,1.546-28.694,26.748-1.537,36.672
	c0.917,0.335,1.86,0.649,2.825,0.942l0.002,0.001c-5.292,0.464-10.692-1.34-14.689-5.264c-6.243-6.127-7.386-15.771-2.746-23.187
	c8.024-14.403,15.984-27.879,21.121-34.533c2.83-3.664,5.54-6.704,8.064-9.225c9.891-13.607,27.501-19.88,37.138-22.172v9.964
	c0.603,1.104,1.956,2.792,4.837,3.792c4.872,1.693,10.228,1.596,10.228,1.596c3.741-0.41,6.384-2.105,7.447-5.646v-6.425
	c1.397-1.037,2.91-2.555,3.803-4.108c12.883,1.073,24.406,4.227,31.897,11.162c-3.074,1.111-5.274,4.056-5.274,7.511
	c0,7.185,7.983,23.95,7.983,23.95s5.775-12.126,7.502-20.172c6.884,7.989,13.236,16.339,19.424,24.799l-3.801,37.397h-8.916v-39.269
	L244.577,325.158L244.577,325.158z M435.217,301.853c9.521,0,17.251,7.382,17.251,16.474v32.95c0,2.971-26.975,19.73-29.197,16.474
	h-42.672c-9.52,0-17.251-7.382-17.251-16.474v-32.95c0-9.092,7.731-16.474,17.251-16.474H435.217z"></path>
<path id="color_x5F_5" fill-rule="evenodd" clip-rule="evenodd" fill="#FFD2BB" d="M236.095,372.571
	c0,0-61.576,12.363-91.375,1.474c-27.157-9.924-9.091-35.126,1.537-36.672c14.125-2.056,73.53,8.51,89.287,11.396l9.234-8.315
	l-0.157,9.413c2.373,0.158,4.24,0.212,6.02,0.024c8.661-0.91,13.124-13.61,14.143-1.245c1.018,12.365,2.824,15.829-4.929,20.79
	C252.103,374.397,236.095,372.571,236.095,372.571z M297.459,364.427h-16.977l3.455-33.986l28.917-50.375
	c0.699-3.768,3.582-15.724,12.714-21.131c9.019-5.342,18.372-5.863,22.618,3.275c3.048,6.563-8.378-2.532-8.402,2.757
	c-0.033,7.13-5.361,14.85-8.687,18.716l-20.919,63.912c-3.367,5.958-7.079,11.284-11.117,15.374
	C298.547,363.49,298.014,363.975,297.459,364.427z M172.904,245.688c2.245-1.382,4.367-1.33,6.275,0.42
	c0,0,5.287,12.266,8.178,5.812c2.891-6.454,5.342-21.059,5.342-21.059c13.31,7.408,25.795,5.072,39.299,0.066l2.647,10.02v-0.001
	c0.405,3.666,0.619,7.623,0.619,9.901c0,1.947-0.032,18.7-11.794,27.125c0.002-0.011,0.004-0.021,0.006-0.031
	c-0.636,0.436-2.046,1.342-2.354,1.446c-4.257,1.43-13.879,1.362-18.699,0.484c0.687,3.641,12.416,4.232,13.392,5.216
	c0.411,0.413,1.711-0.142,3.131-1.197v6.425c-1.063,3.541-3.706,5.236-7.447,5.646c0,0-5.355,0.097-10.228-1.596
	c-2.882-1.001-4.234-2.689-4.837-3.792v-11.127c-0.055-0.017-0.11-0.034-0.164-0.05c-7.338-2.154-12.32-5.127-14.662-14.623
	c-0.306-1.24-1.028-3.647-1.72-6.172c-0.888,0.564-1.898,0.883-2.968,0.883c-3.534,0-6.403-3.475-6.403-7.756
	C170.518,249.287,171.448,247.11,172.904,245.688z M224.915,265.36c-0.502,2.665-3.237,4.703-6.531,4.703s-6.029-2.039-6.531-4.703
	H224.915z"></path>
<path id="color_x5F_4" fill-rule="evenodd" clip-rule="evenodd" fill="#fff28a" d="M223.477,277.94
	c-0.686,3.641-6.687,8.129-7.662,7.146c-0.976-0.984-12.705-1.575-13.392-5.216c4.82,0.878,14.442,0.946,18.699-0.484
	C221.432,279.282,222.841,278.376,223.477,277.94z M179.179,246.107c0,0,5.287,12.266,8.178,5.812
	c2.891-6.454,5.342-21.059,5.342-21.059c13.31,7.408,25.795,5.072,39.299,0.066l2.647,10.02c0,0,17.732-37.55-8.615-39.986
	c-26.348-2.436-51.797,6.05-50.916,14.468s-2.942,0.862-4.629,12.305c-1.687,11.442,2.245,18.064,2.245,18.064
	C175.041,244.303,177.221,244.312,179.179,246.107z"></path>
<path id="color_x5F_3" fill-rule="evenodd" clip-rule="evenodd" fill="#68680b" d="M271.566,370.228h-13.129
	c0.497-0.243,0.972-0.506,1.418-0.793c7.753-4.961,5.947-8.425,4.929-20.79c-1.019-12.365-5.481,0.336-14.143,1.245
	c-1.78,0.188-3.647,0.134-6.02-0.024l0.157-9.413l-0.202-15.296h26.989v45.071H271.566z M319.222,364.427
	c1.706-0.043,3.278-1.144,3.838-2.857l10.237-31.277l16.786,5.826l-8.804,28.308H319.222z M319.013,364.427h-21.554
	c0.553-0.451,1.088-0.937,1.6-1.457c4.038-4.09,7.75-9.416,11.117-15.373l-2.884,8.812c-0.712,2.176,0.475,4.521,2.652,5.233
	l7.883,2.581C318.221,364.35,318.619,364.417,319.013,364.427z M237.378,206.476c28.667,2.604,60.581,8.857,90.881,21.973
	c11.114,4.811,21.249,9.782,30.48,14.877c-1.659,2.495-2.998,6.209-2.607,11.569c0.914,12.506,8.505,34.431,8.505,34.431
	l-5.961,19.165l-16.383-5.686l10.879-33.235c0.711-2.175-0.476-4.521-2.653-5.233l-1.829-0.598
	c-0.042-0.374-0.202-0.873-0.506-1.529c-4.246-9.138-13.598-8.617-22.618-3.275c-9.132,5.408-12.015,17.364-12.714,21.132
	l-28.917,50.374l0.347-3.411c-6.189-8.46-12.541-16.81-19.424-24.799c0.304-1.414,0.482-2.704,0.482-3.777
	c0-4.407-3.578-7.984-7.984-7.984c-0.951,0-1.864,0.167-2.711,0.473c-7.49-6.937-19.013-10.09-31.896-11.162
	c0.351-0.607,0.605-1.22,0.721-1.811c11.762-8.425,11.794-25.178,11.794-27.125c0-2.278-0.214-6.235-0.619-9.901
	C234.687,240.857,245.69,217.504,237.378,206.476z M126.754,220.778l-0.188,0.002c0.976-2.294,2.392-4.405,4.195-6.201
	c3.685-3.673,8.742-4.985,13.893-5.736c5.605-0.817,21.228-2.983,42.653-3.713c-7.776,2.804-12.584,6.557-12.192,10.298
	c0.881,8.418-2.942,0.862-4.629,12.305c-1.687,11.442,2.245,18.064,2.245,18.064c0.058-0.037,0.116-0.074,0.173-0.109
	c-1.454,1.422-2.386,3.6-2.386,6.039c0,4.281,2.87,7.756,6.403,7.756c1.071,0,2.08-0.319,2.968-0.883
	c0.692,2.526,1.414,4.932,1.72,6.172c2.342,9.496,7.324,12.469,14.662,14.623c0.054,0.016,0.109,0.033,0.164,0.05v1.164
	c-9.637,2.292-27.247,8.565-37.138,22.173c-1.503,1.5-3.072,3.185-4.692,5.076c-1.868-2.272-3.983-4.849-6.374-7.786
	c-6.816-8.368-11.933-14.424-15.721-18.775h10.792c4.567-0.001,8.274-3.151,8.274-7.031V227.81c0-3.88-3.706-7.03-8.274-7.031
	L126.754,220.778L126.754,220.778z"></path>
<path id="color_x5F_2" fill-rule="evenodd" clip-rule="evenodd" fill="#d2fcf6" d="M86.708,204.902
	c63.979-84.346,268.444-98.013,329.106-43.735c54.08,48.389,113.524,88.567,117.618,151.059
	c-32.411-0.263-63.517-12.876-86.963-35.291c-28.515-27.323-66.395-53.748-115.586-70.727
	c-28.122-9.707-61.688-15.317-95.375-18.371c-3.344-0.177-6.686-0.455-10.021-0.834c-35.023-2.666-69.606-2.729-97.746-1.925
	C109.829,187.689,96.534,194.927,86.708,204.902z M257.357,293.904c2.906,0,5.267,2.36,5.267,5.267c0,2.906-2.36,5.266-5.267,5.266
	c-2.906,0-5.266-2.359-5.266-5.266C252.091,296.264,254.451,293.904,257.357,293.904z"></path>
<path id="color_x5F_1" fill-rule="evenodd" clip-rule="evenodd" fill="#000000" d="M162.612,377.799l-35.865-0.001
	c-6.421,0-11.626-5.455-11.626-12.184V219.001c0-6.065,2.298-11.881,6.39-16.168c4.092-4.288,9.708-5.821,15.428-6.697
	c16.958-2.599,116.48-16.893,203.9,22.892c103.506,47.108,130.489,107.327,130.489,155.895v0.001c0,1.587-1.227,2.874-2.743,2.874
	l-272.177,0.003c19.093-1.617,39.686-5.23,39.686-5.23s14.215,1.621,22.342-2.343h13.129v-5.801h47.447
	c-0.394-0.01-0.792-0.076-1.186-0.205l-7.883-2.581c-2.176-0.712-3.364-3.056-2.652-5.233l23.803-72.726
	c3.326-3.866,8.654-11.586,8.687-18.716c0.022-4.76,9.28,2.131,8.907-1.228l1.83,0.598c2.176,0.712,3.364,3.057,2.653,5.233
	l-10.879,33.235l16.383,5.686l5.961-19.165c0,0-7.591-21.925-8.505-34.431c-0.392-5.359,0.948-9.074,2.607-11.569
	c-9.231-5.095-19.365-10.066-30.48-14.877c-30.3-13.116-62.214-19.369-90.882-21.973c-2.216-2.941-5.807-5.005-11.346-5.517
	c-14.64-1.353-29.002,0.665-38.724,4.17c-21.425,0.73-37.048,2.896-42.653,3.713c-5.151,0.751-10.209,2.064-13.893,5.736
	c-1.803,1.797-3.219,3.907-4.195,6.201l0.188-0.002h16.548c4.566,0.001,8.274,3.151,8.274,7.031v46.455
	c0,3.88-3.706,7.03-8.274,7.031H132.51c3.788,4.352,8.905,10.408,15.721,18.775c2.391,2.936,4.507,5.513,6.374,7.787
	c-1.102,1.284-2.227,2.665-3.372,4.147c-5.138,6.654-13.097,20.13-21.121,34.533c-2.81,4.491-5.229,15.212,2.746,23.187
	c3.96,3.96,9.695,5.592,14.689,5.264C151.641,375.87,157.575,377.212,162.612,377.799z M435.217,301.853
	c9.521,0,17.251,7.382,17.251,16.474v32.95c0,2.971-26.975,19.73-29.197,16.474h-42.672c-9.52,0-17.251-7.382-17.251-16.474v-32.95
	c0-9.092,7.731-16.474,17.251-16.474H435.217z M341.278,364.427l8.804-28.308l-16.786-5.826l-10.237,31.277
	c-0.56,1.713-2.132,2.814-3.838,2.857H341.278z"></path>
</svg>