<?xml version="1.0" standalone="no"?>
<!DOCTYPE svg PUBLIC "-//W3C//DTD SVG 20010904//EN"
 "http://www.w3.org/TR/2001/REC-SVG-20010904/DTD/svg10.dtd">
<svg version="1.0" xmlns="http://www.w3.org/2000/svg"
 width="944.000000pt" height="806.000000pt" viewBox="0 0 944.000000 806.000000"
 preserveAspectRatio="xMidYMid meet">

<g transform="translate(0.000000,806.000000) scale(0.100000,-0.100000)"
fill="#000000" stroke="none">
<path d="M0 4030 l0 -4030 4720 0 4720 0 0 4030 0 4030 -4720 0 -4720 0 0
-4030z m4926 2249 c453 -45 872 -220 1228 -513 434 -357 722 -888 792 -1456
20 -164 15 -482 -11 -630 -127 -746 -604 -1374 -1278 -1683 -307 -140 -610
-207 -940 -207 -362 0 -676 74 -1002 235 -167 82 -273 150 -415 264 -333 267
-583 629 -719 1037 -27 82 -59 196 -71 253 -26 129 -50 348 -50 461 0 104 23
327 45 435 72 355 237 706 467 990 88 108 272 284 388 371 449 338 1017 498
1566 443z"/>
<path d="M4555 6239 c-348 -19 -749 -152 -1049 -349 -521 -342 -874 -877 -977
-1484 -30 -174 -36 -462 -15 -626 65 -490 248 -886 571 -1237 550 -596 1390
-844 2169 -642 864 225 1500 928 1637 1809 40 263 26 587 -38 849 -188 776
-789 1395 -1561 1607 -158 43 -271 63 -397 69 -55 3 -122 7 -150 9 -27 1 -113
-1 -190 -5z m-5 -293 c0 -20 -6 -25 -45 -30 -42 -7 -45 -9 -45 -37 l0 -31 58
4 c52 3 57 1 60 -18 3 -18 -3 -22 -49 -27 -28 -4 -54 -9 -57 -11 -2 -3 -1 -21
2 -40 l7 -36 59 7 c56 5 60 4 60 -15 0 -24 -12 -28 -102 -38 -55 -5 -68 -4
-68 8 0 7 -7 69 -15 137 -9 68 -14 126 -11 128 2 2 32 8 67 12 35 5 67 9 72
10 4 0 7 -10 7 -23z m339 18 c21 -5 31 -12 31 -25 0 -16 -8 -19 -50 -19 -48 0
-50 -1 -50 -29 0 -27 3 -29 56 -36 44 -5 55 -10 52 -23 -2 -13 -16 -18 -61
-20 l-57 -3 0 -59 0 -60 -31 0 c-30 0 -31 2 -26 33 3 17 9 80 13 140 l6 107
43 0 c23 0 57 -3 74 -6z m378 -77 c3 -4 3 -14 -1 -23 -6 -16 -34 -16 -77 1
-12 5 -20 -2 -27 -25 -12 -34 -15 -32 56 -50 44 -11 48 -16 33 -39 -7 -11 -17
-12 -54 -2 -25 6 -48 11 -51 11 -3 0 -13 -27 -22 -60 -15 -54 -19 -60 -38 -54
-11 4 -23 8 -25 10 -3 3 21 99 55 221 l15 51 65 -18 c36 -9 68 -20 71 -23z
m226 -78 l24 -11 -27 -56 c-14 -32 -39 -88 -55 -127 -16 -38 -30 -71 -31 -73
-1 -1 -13 2 -26 9 l-25 11 56 129 c31 70 57 129 58 129 1 0 13 -5 26 -11z
m-1562 -168 c126 -86 128 -88 103 -100 -20 -9 -30 -9 -41 0 -22 19 -153 -47
-153 -77 0 -21 -26 -52 -35 -42 -8 8 -19 308 -11 308 4 0 66 -40 137 -89z
m1863 -5 c38 -16 73 -61 82 -105 6 -28 4 -31 -19 -31 -20 0 -27 6 -32 30 -18
80 -132 94 -170 21 -20 -39 -19 -66 2 -102 21 -34 69 -47 113 -29 24 10 33 9
51 -3 l22 -16 -34 -21 c-26 -16 -46 -20 -85 -17 -83 6 -134 59 -134 139 0 108
104 176 204 134z m-2221 -161 c125 -137 122 -134 103 -153 -17 -16 -20 -14
-61 32 l-44 50 -50 -45 c-27 -24 -49 -48 -50 -54 -1 -5 16 -26 36 -47 31 -32
36 -42 27 -56 -6 -9 -15 -17 -20 -17 -5 0 -51 46 -102 101 -87 96 -91 102 -74
118 17 15 21 13 57 -24 l38 -39 52 47 52 47 -35 43 c-28 35 -32 45 -22 57 7 8
15 15 19 15 4 0 37 -34 74 -75z m1412 -94 c139 -28 229 -61 361 -130 334 -176
575 -470 680 -829 77 -266 70 -569 -20 -831 -115 -334 -366 -620 -684 -780
-316 -159 -716 -185 -1058 -67 -330 112 -619 367 -780 688 -47 94 -109 282
-125 383 -19 118 -17 371 4 477 92 464 417 855 850 1022 101 39 235 73 337 86
103 14 323 4 435 -19z m1115 4 c15 -14 8 -23 -84 -115 -99 -97 -101 -99 -120
-81 -18 19 -16 21 80 115 55 52 101 95 103 96 3 0 12 -7 21 -15z m221 -312
c-13 -10 -19 -9 -34 9 -10 12 -22 28 -26 37 -8 12 -14 13 -35 3 -32 -14 -32
-25 -1 -66 14 -18 25 -38 25 -43 0 -10 -30 -27 -35 -21 -25 37 -59 78 -66 78
-4 0 -20 -10 -34 -22 l-26 -23 26 -40 27 -40 -31 33 c-24 25 -31 41 -31 72 0
38 3 41 87 99 l87 59 42 -61 c37 -55 39 -63 25 -74z m-3023 72 c39 -42 43 -90
11 -142 -20 -33 -21 -35 -3 -54 16 -18 16 -21 2 -35 -15 -15 -25 -10 -120 56
-56 40 -107 77 -112 81 -14 12 54 106 89 124 45 23 94 12 133 -30z m3152 -268
c0 -2 -18 -56 -40 -122 -22 -65 -38 -120 -36 -122 1 -2 36 10 76 27 40 17 74
29 75 28 1 -2 7 -12 13 -24 10 -20 4 -24 -116 -71 -70 -28 -128 -50 -130 -48
-2 2 13 55 34 119 20 64 35 119 32 121 -3 3 -38 -8 -78 -25 -40 -17 -75 -29
-76 -27 -2 2 -5 13 -6 26 -3 19 11 28 112 71 104 43 140 56 140 47z m-3222
-102 c1 -1 -12 -36 -30 -78 -37 -89 -19 -88 -183 -15 -109 48 -113 51 -103 73
l10 23 101 -44 c55 -24 105 -44 111 -44 6 0 20 22 31 50 16 42 23 49 40 44 11
-4 21 -7 23 -9z m-108 -305 c0 -12 -10 -25 -25 -32 -19 -8 -27 -23 -35 -67 -6
-31 -13 -63 -16 -71 -3 -8 4 -21 16 -30 16 -12 19 -21 13 -38 -8 -22 -15 -19
-133 74 -77 61 -118 100 -109 103 67 23 258 80 272 80 11 1 17 -6 17 -19z
m3485 -42 c10 -48 25 -142 25 -160 0 -11 -7 -18 -19 -18 -20 0 -31 18 -31 51
0 23 3 23 -132 0 l-106 -17 -5 25 c-3 14 -5 26 -4 27 1 0 54 9 117 20 l115 19
-3 38 c-3 32 -1 37 17 37 13 0 22 -8 26 -22z m-200 -597 c-7 -44 -16 -40 115
-61 109 -18 110 -18 110 -46 0 -13 -6 -27 -12 -29 -7 -3 -61 3 -120 13 -114
20 -118 19 -118 -29 0 -15 -7 -19 -31 -19 -29 0 -31 2 -26 28 3 15 11 62 17
105 13 76 13 77 42 77 29 0 30 -1 23 -39z m-3422 -72 c59 -18 104 -35 100 -40
-44 -42 -237 -188 -244 -183 -15 9 -10 52 6 62 14 7 14 17 3 80 -10 62 -15 73
-35 78 -13 4 -23 12 -23 19 0 7 -3 20 -6 29 -5 14 -1 14 42 1 27 -8 98 -29
157 -46z m3448 -271 c151 -60 152 -48 -4 -131 -50 -26 -92 -49 -94 -51 -3 -2
30 -17 72 -33 71 -26 76 -29 70 -53 -4 -14 -9 -28 -13 -31 -4 -3 -67 19 -141
49 -154 64 -154 53 2 134 l99 51 -74 30 c-40 17 -75 31 -77 33 -7 6 10 54 19
54 5 0 68 -23 141 -52z m-3256 -79 c-2 -3 -49 -25 -104 -48 -56 -24 -101 -49
-101 -56 0 -7 9 -32 20 -56 l19 -44 -21 -8 c-12 -4 -24 -4 -28 0 -13 15 -63
143 -58 148 3 3 61 30 129 59 123 53 124 53 136 32 6 -11 10 -23 8 -27z m159
-286 c48 -77 49 -122 2 -169 -28 -28 -42 -34 -75 -34 -52 0 -92 20 -111 54
-14 28 -25 32 -35 16 -10 -16 -34 -11 -45 10 -9 17 2 28 102 99 62 44 116 80
120 81 3 0 23 -26 42 -57z m2801 13 c18 -13 18 -15 -9 -51 -27 -35 -27 -37
-10 -50 27 -20 28 -19 58 25 29 44 34 46 59 28 16 -12 15 -17 -13 -58 l-30
-45 23 -17 c32 -25 39 -23 70 27 32 50 34 51 61 30 20 -15 22 -12 -42 -103
l-44 -62 -111 76 c-62 42 -116 80 -121 84 -8 8 69 130 82 130 5 0 17 -6 27
-14z m-37 -398 l32 -34 -22 -21 -23 -21 -106 103 -107 103 21 20 20 21 76 -69
c42 -37 91 -84 109 -102z m-2552 131 c3 -6 -11 -28 -31 -49 l-38 -39 49 -45
49 -44 41 39 c40 39 40 39 59 19 20 -22 19 -22 -124 -180 l-49 -55 -22 21 -21
20 42 47 c46 53 46 54 -22 108 l-38 30 -42 -46 -42 -46 -21 20 -20 21 45 47
c25 27 67 74 93 105 40 48 51 56 66 48 11 -6 22 -15 26 -21z m2233 -158 c9 -6
11 -18 7 -34 -5 -23 -10 -25 -44 -20 -51 7 -81 -19 -89 -74 -5 -37 -2 -46 25
-73 59 -58 145 -24 145 58 0 33 5 45 23 57 23 15 25 14 35 -12 24 -63 -11
-146 -75 -177 -94 -44 -209 13 -217 109 -4 59 1 84 28 116 42 50 123 75 162
50z m-1856 -278 c-3 -87 -7 -159 -9 -161 -8 -11 -44 22 -44 41 0 32 -121 97
-145 77 -13 -11 -20 -11 -40 0 -14 7 -25 16 -25 19 1 6 250 178 262 180 4 0 4
-70 1 -156z m1541 -28 c54 -120 56 -130 40 -142 -10 -7 -23 -13 -29 -13 -8 0
-87 167 -123 260 -2 6 49 31 54 26 1 0 27 -59 58 -131z m-252 30 c6 -30 5 -31
-45 -40 -36 -7 -43 -18 -31 -48 5 -13 12 -13 57 -1 28 7 52 12 53 11 1 -1 5
-14 9 -29 6 -24 4 -26 -32 -32 -64 -11 -67 -15 -52 -80 7 -31 10 -58 7 -61 -2
-2 -15 -6 -28 -7 -23 -3 -26 4 -61 135 l-36 137 56 16 c31 8 61 17 66 19 24 8
33 3 37 -20z m-659 -41 c21 -4 27 -11 27 -31 0 -25 -1 -26 -50 -20 l-50 6 0
-29 c0 -26 4 -30 28 -30 52 0 72 -11 72 -38 0 -24 -1 -25 -54 -19 -54 5 -54 5
-60 -25 -8 -41 -1 -48 44 -48 54 0 70 -8 70 -37 0 -25 0 -25 -67 -18 -105 10
-113 13 -113 44 0 27 15 162 26 229 l5 33 47 -6 c26 -4 59 -9 75 -11z m349
-19 c7 -32 2 -35 -43 -35 -42 0 -53 -10 -44 -41 6 -19 12 -20 61 -14 l54 6 0
-30 c0 -31 0 -31 -56 -31 l-56 0 7 -65 7 -65 -30 0 c-33 0 -31 -8 -48 207 l-6
82 68 4 c38 1 72 4 75 5 4 1 9 -9 11 -23z"/>
<path d="M3838 5644 c-5 -4 2 -95 7 -102 4 -5 75 39 75 46 -1 10 -77 62 -82
56z"/>
<path d="M4663 5323 l-52 -4 14 -40 c26 -74 108 -222 168 -303 111 -150 285
-295 462 -384 83 -41 226 -88 331 -108 89 -16 316 -25 329 -12 12 11 -81 195
-101 201 -11 3 -44 11 -74 17 -187 41 -376 123 -524 228 -101 71 -267 237
-331 331 l-49 71 -47 0 c-26 0 -53 1 -61 3 -7 2 -36 2 -65 0z"/>
<path d="M4430 5293 c-36 -8 -66 -16 -67 -17 -4 -3 21 -119 39 -181 31 -106
128 -301 193 -385 133 -174 280 -299 461 -390 213 -108 385 -145 629 -137 90
3 179 12 224 22 l73 18 -6 41 c-4 22 -11 57 -17 77 l-9 37 -113 0 c-296 1
-544 76 -788 240 -125 84 -279 239 -363 365 -52 79 -147 261 -158 305 -7 25
-11 25 -98 5z"/>
<path d="M4993 5242 c61 -78 186 -195 279 -259 121 -84 305 -169 418 -194 25
-5 53 -12 63 -15 25 -8 -62 102 -145 182 -95 93 -196 166 -306 223 -99 50
-242 103 -316 116 l-38 6 45 -59z"/>
<path d="M4211 5224 l-53 -24 7 -87 c21 -269 104 -502 246 -693 351 -475 959
-651 1513 -438 l79 30 -6 55 c-3 30 -8 57 -11 60 -3 3 -47 -3 -98 -13 -134
-27 -397 -25 -523 4 -279 65 -503 188 -695 381 -200 200 -320 426 -384 724 -8
32 -7 32 -75 1z"/>
<path d="M4035 5134 c-49 -29 -54 -49 -54 -226 -1 -232 32 -376 134 -583 35
-71 87 -160 115 -198 195 -256 459 -423 778 -493 107 -24 131 -25 292 -21 153
4 190 8 290 35 111 28 297 107 359 151 21 15 31 33 36 62 4 22 5 42 2 45 -2 2
-51 -11 -108 -30 -367 -122 -774 -80 -1112 114 -316 180 -550 487 -642 841
-10 35 -25 123 -34 196 l-16 131 -40 -24z"/>
<path d="M3872 5017 c-47 -50 -89 -306 -79 -477 23 -381 202 -721 502 -953
125 -97 313 -187 475 -229 118 -30 135 -32 305 -32 194 -1 240 6 395 56 167
54 378 172 449 253 56 64 40 70 -58 20 -96 -48 -240 -94 -361 -116 -107 -19
-374 -18 -476 3 -450 93 -799 361 -994 763 -91 188 -133 375 -134 598 0 75 -1
137 -1 137 -1 0 -11 -10 -23 -23z"/>
<path d="M3704 4823 c-69 -154 -111 -425 -94 -609 12 -120 14 -135 47 -249
116 -405 437 -737 837 -864 150 -48 248 -64 396 -64 268 0 502 72 728 223 158
106 299 249 165 168 -207 -126 -440 -190 -698 -191 -283 -1 -534 77 -785 245
-381 254 -612 724 -586 1193 4 66 10 139 15 163 5 23 7 42 5 42 -3 0 -16 -26
-30 -57z"/>
<path d="M3531 4558 c-91 -230 -121 -411 -102 -624 47 -529 384 -955 885
-1119 145 -47 231 -60 401 -59 275 1 500 71 725 225 94 64 291 244 210 191
-25 -16 -85 -50 -135 -75 -377 -189 -818 -195 -1193 -17 -458 218 -747 633
-792 1137 -10 114 -3 270 17 351 8 32 -1 27 -16 -10z"/>
<path d="M3184 5130 c-11 -4 -28 -19 -36 -33 -16 -24 -16 -25 41 -65 l58 -40
16 28 c25 41 21 75 -9 99 -29 23 -38 24 -70 11z"/>
<path d="M2953 4399 c-18 -5 -33 -13 -33 -18 0 -5 16 -21 36 -36 38 -29 53
-24 54 17 0 9 3 23 6 32 7 18 -12 20 -63 5z"/>
<path d="M2894 3697 c4 -23 9 -43 11 -46 3 -2 23 9 45 24 23 16 37 31 33 35
-4 4 -28 12 -52 18 l-43 10 6 -41z"/>
<path d="M3217 3063 l-48 -36 27 -28 c34 -36 67 -37 100 -3 20 19 24 31 19 52
-8 32 -23 52 -39 51 -6 0 -33 -16 -59 -36z"/>
<path d="M3822 2462 l-33 -28 36 -17 c19 -9 38 -17 40 -17 3 0 5 20 5 45 0 25
-3 45 -7 45 -5 0 -23 -13 -41 -28z"/>
</g>
</svg>
